<svg width="116" height="104" viewBox="0 0 116 104" fill="none" xmlns="http://www.w3.org/2000/svg">
<path d="M109.698 72.8271C109.447 72.4901 109.093 72.2392 108.686 72.1121L58.6102 56.474C58.5599 56.4583 58.5074 56.4745 58.4564 56.463C58.3044 56.4273 58.1566 56.4304 57.9999 56.4302C57.8431 56.4304 57.6953 56.4273 57.5433 56.463C57.4923 56.4745 57.4398 56.4583 57.3895 56.474L7.31391 72.1121C6.90707 72.2392 6.5531 72.4901 6.30259 72.8271C6.21455 72.9445 -2.32871 84.7526 8.41804 96.7626C12.206 100.995 17.1539 103.131 23.0231 103.131C26.4571 103.131 30.2049 102.4 34.2198 100.93C44.0047 97.3476 53.8858 89.7626 58.0001 84.2107C62.1144 89.7631 71.9955 97.3478 81.7803 100.93C85.7952 102.4 89.543 103.131 92.9771 103.131C98.8462 103.131 103.794 100.995 107.582 96.7626C118.329 84.7523 109.785 72.9445 109.698 72.8271Z" fill="#D266CA"/>
<path d="M57.9999 79.7806C69.0462 79.7806 78.5542 73.3902 83 64.1691L58.6027 56.4739C58.553 56.4582 58.5012 56.4744 58.451 56.4629C58.3008 56.4273 58.155 56.4304 58.0001 56.4302C57.8453 56.4304 57.6994 56.4273 57.5492 56.4629C57.4988 56.4744 57.447 56.4582 57.3973 56.4739L33 64.1693C37.4456 73.3902 46.9535 79.7806 57.9999 79.7806Z" fill="#E68CDC"/>
<path d="M79.7325 12.6491C74.0789 3.11379 61.6475 0 58 0C54.3526 0 41.9212 3.11357 36.2676 12.6491C35.9767 13.1396 35.9198 13.7292 36.1124 14.2644L50.1123 53.1817C50.3926 53.9618 51.1504 54.4842 52 54.4842H64.0001C64.8497 54.4842 65.6075 53.9618 65.8878 53.1817L79.8877 14.2644C80.08 13.7295 80.0234 13.1394 79.7325 12.6491Z" fill="#F087E6"/>
<path d="M57.5 33.0796C52.3067 33.0796 47.5855 34.9727 44 38.0589L49.5104 53.1816C49.7943 53.9617 50.5619 54.4841 51.4225 54.4841H63.5775C64.4381 54.4841 65.2057 53.9617 65.4896 53.1816L71 38.0589C67.4145 34.9729 62.6933 33.0796 57.5 33.0796Z" fill="#FFAAF0"/>
<path d="M84.3427 11.97C79.0771 11.0857 74.2049 12.206 70.6161 15.133C67.8124 17.42 65.9999 20.7352 65.9999 23.578C65.9999 38.7371 63.3052 47.7786 58 50.5127C52.6948 47.7784 50.0001 38.7371 50.0001 23.578C50.0001 20.7352 48.1876 17.42 45.3839 15.133C41.7951 12.206 36.9229 11.0857 31.6574 11.97C19.0548 14.096 0 29.8645 0 48.7896C0 66.1863 10.1289 91.4558 26.0001 91.4558C37.1984 91.4558 45.4795 78.531 51.5264 69.0933C53.7198 65.6692 56.6927 61.0404 58.0002 60.4785C59.3075 61.0404 62.2804 65.6692 64.474 69.0933C70.521 78.5307 78.8023 91.4558 90.0004 91.4558C105.871 91.4558 116 66.1863 116 48.7896C116 29.8645 96.9452 14.096 84.3427 11.97Z" fill="#E673D2"/>
<path d="M65.7666 30.1606C65.0169 41.1902 62.4164 47.9263 58 50.2278C53.5838 47.9265 50.9831 41.1902 50.2334 30.1606C40.7955 33.3282 34 42.0805 34 52.4074C34 62.0341 39.9035 70.2985 48.3487 73.9426C49.4683 72.2546 50.5309 70.5855 51.5264 69.0146C53.7198 65.5525 56.6927 60.8724 58.0002 60.3042C59.3075 60.8724 62.2804 65.5525 64.474 69.0146C65.4695 70.5855 66.5321 72.2544 67.6518 73.9426C76.0965 70.2985 82 62.0341 82 52.4074C82 42.0805 75.2045 33.3282 65.7666 30.1606Z" fill="#F59BEB"/>
<path d="M66 74.8992C65.986 74.9114 65.9719 74.9235 65.9579 74.9356C64.0384 76.5822 61.0001 75.1256 61.0001 72.6357V52.5381H54.9999V72.6357C54.9999 75.1256 51.9616 76.5824 50.0421 74.9356L50 74.8992V80.2951C52.0149 81.0654 54.1698 81.5652 56.4268 81.7212C56.4746 81.7241 56.5227 81.7261 56.5702 81.7261C56.5721 81.7261 56.5734 81.7252 56.5752 81.7252C56.577 81.7252 56.5782 81.7261 56.58 81.7261H59.4198C59.4216 81.7261 59.4227 81.7252 59.4245 81.7252C59.4264 81.7252 59.4277 81.7261 59.4295 81.7261C59.4773 81.7261 59.5254 81.7241 59.5729 81.7212C61.83 81.5654 63.9851 81.0654 65.9998 80.2951V74.8992H66Z" fill="#D266CA"/>
<path d="M76.4928 48.5749C76.1645 48.0761 75.6246 47.7498 75.0239 47.6874C74.4165 47.6157 73.8236 47.8311 73.397 48.2504L66.4856 55.0248C65.7044 55.7906 65.7044 57.0313 66.4856 57.797C68.7521 60.0187 70.0003 62.9728 70.0003 66.1143C70.0003 72.1576 65.3944 77.1723 59.2792 77.8059H56.7213C50.606 77.1721 46.0002 72.1576 46.0002 66.114C46.0002 62.9725 47.2481 60.0185 49.5149 57.7968C50.2961 57.0311 50.2961 55.7904 49.5149 55.0246L42.6035 48.2502C42.1766 47.8309 41.5799 47.6175 40.9765 47.6872C40.3761 47.7494 39.836 48.0758 39.5077 48.5746C37.2128 52.0659 36 56.0977 36 60.233C36 71.4863 44.9729 80.9243 56.427 81.7216C56.4748 81.7245 56.5228 81.7265 56.5704 81.7265C56.5722 81.7265 56.5735 81.7256 56.5754 81.7256C56.5772 81.7256 56.5783 81.7265 56.5801 81.7265H59.4199C59.4217 81.7265 59.4228 81.7256 59.4246 81.7256C59.4265 81.7256 59.4278 81.7265 59.4296 81.7265C59.4774 81.7265 59.5255 81.7245 59.573 81.7216C71.0273 80.9241 80 71.4858 80 60.233C80.0005 56.0977 78.7876 52.0659 76.4928 48.5749Z" fill="#BE5AC3"/>
<path d="M58 58.3759C61.3137 58.3759 64 55.7623 64 52.5383C64 49.3143 61.3137 46.7007 58 46.7007C54.6863 46.7007 52 49.3143 52 52.5383C52 55.7623 54.6863 58.3759 58 58.3759Z" fill="#E673D2"/>
</svg>
